<svg xmlns="http://www.w3.org/2000/svg" width="375" viewBox="0 0 375 375" height="375" version="1.0"><defs><clipPath id="a"><path d="M 100 162 L 112.1875 162 L 112.1875 180 L 100 180 Z M 100 162"/></clipPath><clipPath id="b"><path d="M 103 183 L 110 183 L 110 205.554688 L 103 205.554688 Z M 103 183"/></clipPath><clipPath id="c"><path d="M 87 183 L 93 183 L 93 205.554688 L 87 205.554688 Z M 87 183"/></clipPath><clipPath id="d"><path d="M 72 183 L 79 183 L 79 205.554688 L 72 205.554688 Z M 72 183"/></clipPath><clipPath id="e"><path d="M 70.9375 156.804688 L 78 156.804688 L 78 182 L 70.9375 182 Z M 70.9375 156.804688"/></clipPath><clipPath id="f"><path d="M 128.195312 188.695312 L 285.695312 188.695312 L 285.695312 205.945312 L 128.195312 205.945312 Z M 128.195312 188.695312"/></clipPath></defs><path fill="#FFF" d="M-37.5 -37.5H412.5V412.5H-37.5z"/><path fill="#FFF" d="M-37.5 -37.5H412.5V412.5H-37.5z"/><path fill="#FFF" d="M-37.5 -37.5H412.5V412.5H-37.5z"/><g><g><g><path d="M 8.460938 -12.558594 L 5.011719 -12.558594 L 5.011719 -21.128906 C 5.011719 -21.398438 4.851562 -21.558594 4.582031 -21.558594 L 1.804688 -21.558594 C 1.480469 -21.558594 1.347656 -21.398438 1.347656 -21.128906 L 1.347656 -0.429688 C 1.347656 -0.160156 1.480469 0 1.804688 0 L 4.582031 0 C 4.851562 0 5.011719 -0.160156 5.011719 -0.429688 L 5.011719 -9 L 8.460938 -9 L 8.460938 -0.429688 C 8.460938 -0.160156 8.625 0 8.894531 0 L 11.667969 0 C 11.992188 0 12.128906 -0.160156 12.128906 -0.429688 L 12.128906 -21.128906 C 12.128906 -21.398438 11.992188 -21.558594 11.667969 -21.558594 L 8.894531 -21.558594 C 8.625 -21.558594 8.460938 -21.398438 8.460938 -21.128906 Z M 8.460938 -12.558594" transform="translate(128.551 183.605)"/></g></g><g><g><path d="M 12.101562 -21.128906 C 12.101562 -21.398438 11.992188 -21.558594 11.667969 -21.558594 L 1.75 -21.558594 C 1.507812 -21.558594 1.347656 -21.398438 1.347656 -21.128906 L 1.347656 -0.429688 C 1.347656 -0.160156 1.507812 0 1.75 0 L 11.667969 0 C 11.992188 0 12.101562 -0.160156 12.101562 -0.429688 L 12.101562 -3.125 C 12.101562 -3.421875 11.992188 -3.558594 11.667969 -3.558594 L 4.933594 -3.558594 L 4.933594 -9 L 10.078125 -9 C 10.347656 -9 10.511719 -9.164062 10.511719 -9.460938 L 10.511719 -12.128906 C 10.511719 -12.425781 10.347656 -12.585938 10.078125 -12.585938 L 4.933594 -12.585938 L 4.933594 -17.976562 L 11.667969 -17.976562 C 11.992188 -17.976562 12.101562 -18.164062 12.101562 -18.433594 Z M 12.101562 -21.128906" transform="translate(142.026 183.605)"/></g></g></g><g><g><g><path d="M 14.335938 0 C 14.660156 0 14.769531 -0.160156 14.714844 -0.457031 L 10.242188 -21.183594 C 10.1875 -21.453125 10.027344 -21.558594 9.78125 -21.558594 L 6.035156 -21.558594 C 5.792969 -21.558594 5.632812 -21.453125 5.578125 -21.183594 L 1.105469 -0.457031 C 1.023438 -0.160156 1.160156 0 1.457031 0 L 4.339844 0 C 4.582031 0 4.714844 -0.132812 4.769531 -0.378906 L 5.496094 -4.3125 L 10.296875 -4.3125 L 11.050781 -0.378906 C 11.105469 -0.132812 11.238281 0 11.480469 0 Z M 9.621094 -7.4375 L 6.171875 -7.4375 L 7.894531 -16.84375 Z M 9.621094 -7.4375" transform="translate(155.474 183.605)"/></g></g></g><g><g><g><path d="M 5.011719 -3.558594 L 11.425781 -3.558594 C 11.722656 -3.558594 11.859375 -3.394531 11.859375 -3.125 L 11.859375 -0.429688 C 11.859375 -0.132812 11.722656 0 11.425781 0 L 1.777344 0 C 1.507812 0 1.347656 -0.132812 1.347656 -0.429688 L 1.347656 -21.128906 C 1.347656 -21.398438 1.507812 -21.558594 1.777344 -21.558594 L 4.582031 -21.558594 C 4.878906 -21.558594 5.011719 -21.398438 5.011719 -21.128906 Z M 5.011719 -3.558594" transform="translate(171.267 183.605)"/></g></g><g><g><path d="M 1.238281 -21.558594 C 0.96875 -21.558594 0.808594 -21.398438 0.808594 -21.128906 L 0.808594 -18.433594 C 0.808594 -18.164062 0.96875 -18.003906 1.238281 -18.003906 L 4.367188 -18.003906 L 4.367188 -0.429688 C 4.367188 -0.132812 4.527344 0 4.796875 0 L 7.601562 0 C 7.894531 0 8.03125 -0.132812 8.03125 -0.429688 L 8.03125 -18.003906 L 11.15625 -18.003906 C 11.453125 -18.003906 11.589844 -18.164062 11.589844 -18.433594 L 11.589844 -21.128906 C 11.589844 -21.398438 11.453125 -21.558594 11.15625 -21.558594 Z M 1.238281 -21.558594" transform="translate(184.473 183.605)"/></g></g></g><g><g><g><path d="M 8.460938 -12.558594 L 5.011719 -12.558594 L 5.011719 -21.128906 C 5.011719 -21.398438 4.851562 -21.558594 4.582031 -21.558594 L 1.804688 -21.558594 C 1.480469 -21.558594 1.347656 -21.398438 1.347656 -21.128906 L 1.347656 -0.429688 C 1.347656 -0.160156 1.480469 0 1.804688 0 L 4.582031 0 C 4.851562 0 5.011719 -0.160156 5.011719 -0.429688 L 5.011719 -9 L 8.460938 -9 L 8.460938 -0.429688 C 8.460938 -0.160156 8.625 0 8.894531 0 L 11.667969 0 C 11.992188 0 12.128906 -0.160156 12.128906 -0.429688 L 12.128906 -21.128906 C 12.128906 -21.398438 11.992188 -21.558594 11.667969 -21.558594 L 8.894531 -21.558594 C 8.625 -21.558594 8.460938 -21.398438 8.460938 -21.128906 Z M 8.460938 -12.558594" transform="translate(196.87 183.605)"/></g></g><g><g><path d="M 10.996094 -21.558594 C 10.671875 -21.558594 10.484375 -21.425781 10.375 -21.128906 L 7.359375 -13.394531 L 4.339844 -21.128906 C 4.230469 -21.425781 4.042969 -21.558594 3.71875 -21.558594 L 1.023438 -21.558594 C 0.621094 -21.558594 0.429688 -21.316406 0.59375 -20.941406 L 5.523438 -8.949219 L 5.523438 -0.539062 C 5.523438 -0.1875 5.714844 0 6.0625 0 L 8.652344 0 C 9 0 9.191406 -0.1875 9.191406 -0.539062 L 9.191406 -8.949219 L 14.121094 -20.941406 C 14.285156 -21.316406 14.09375 -21.558594 13.691406 -21.558594 Z M 10.996094 -21.558594" transform="translate(210.345 183.605)"/></g></g></g><g><g><g><path d="M 12.128906 -21.128906 C 12.128906 -21.398438 11.964844 -21.558594 11.695312 -21.558594 L 1.777344 -21.558594 C 1.480469 -21.558594 1.347656 -21.398438 1.347656 -21.128906 L 1.347656 -0.429688 C 1.347656 -0.160156 1.480469 0 1.777344 0 L 4.582031 0 C 4.851562 0 5.011719 -0.160156 5.011719 -0.429688 L 5.011719 -9.027344 L 10.078125 -9.027344 C 10.347656 -9.027344 10.511719 -9.164062 10.511719 -9.460938 L 10.511719 -12.15625 C 10.511719 -12.425781 10.347656 -12.585938 10.078125 -12.585938 L 5.011719 -12.585938 L 5.011719 -18.003906 L 11.695312 -18.003906 C 11.964844 -18.003906 12.128906 -18.164062 12.128906 -18.433594 Z M 12.128906 -21.128906" transform="translate(231.798 183.605)"/></g></g><g><g><path d="M 1.347656 -3.878906 C 1.347656 -1.347656 2.695312 0 5.226562 0 L 8.246094 0 C 10.78125 0 12.128906 -1.347656 12.128906 -3.878906 L 12.128906 -17.679688 C 12.128906 -20.210938 10.78125 -21.558594 8.246094 -21.558594 L 5.226562 -21.558594 C 2.695312 -21.558594 1.347656 -20.210938 1.347656 -17.679688 Z M 6.011719 -3.476562 C 5.308594 -3.476562 4.933594 -3.828125 4.933594 -4.554688 L 4.933594 -17.003906 C 4.933594 -17.707031 5.308594 -18.082031 6.011719 -18.082031 L 7.574219 -18.082031 C 8.273438 -18.082031 8.652344 -17.707031 8.652344 -17.003906 L 8.652344 -4.554688 C 8.652344 -3.828125 8.273438 -3.476562 7.574219 -3.476562 Z M 6.011719 -3.476562" transform="translate(245.273 183.605)"/></g></g><g><g><path d="M 1.347656 -3.878906 C 1.347656 -1.347656 2.695312 0 5.226562 0 L 8.246094 0 C 10.78125 0 12.128906 -1.347656 12.128906 -3.878906 L 12.128906 -17.679688 C 12.128906 -20.210938 10.78125 -21.558594 8.246094 -21.558594 L 5.226562 -21.558594 C 2.695312 -21.558594 1.347656 -20.210938 1.347656 -17.679688 Z M 6.011719 -3.476562 C 5.308594 -3.476562 4.933594 -3.828125 4.933594 -4.554688 L 4.933594 -17.003906 C 4.933594 -17.707031 5.308594 -18.082031 6.011719 -18.082031 L 7.574219 -18.082031 C 8.273438 -18.082031 8.652344 -17.707031 8.652344 -17.003906 L 8.652344 -4.554688 C 8.652344 -3.828125 8.273438 -3.476562 7.574219 -3.476562 Z M 6.011719 -3.476562" transform="translate(258.748 183.605)"/></g></g><g><g><path d="M 1.347656 -0.429688 C 1.347656 -0.132812 1.480469 0 1.777344 0 L 8.246094 0 C 10.78125 0 12.128906 -1.347656 12.128906 -3.878906 L 12.128906 -17.652344 C 12.128906 -20.1875 10.78125 -21.558594 8.246094 -21.558594 L 1.777344 -21.558594 C 1.480469 -21.558594 1.347656 -21.398438 1.347656 -21.128906 Z M 5.011719 -3.558594 L 5.011719 -18.003906 L 7.492188 -18.003906 C 8.191406 -18.003906 8.570312 -17.625 8.570312 -16.898438 L 8.570312 -4.636719 C 8.570312 -3.90625 8.191406 -3.558594 7.492188 -3.558594 Z M 5.011719 -3.558594" transform="translate(272.223 183.605)"/></g></g></g><g clip-path="url(#a)"><path fill="#F2A22C" d="M 106.808594 179.460938 L 105.429688 179.460938 C 103.914062 179.460938 102.671875 178.96875 101.742188 177.992188 C 99.898438 176.070312 100.0625 172.957031 100.070312 172.824219 L 100.070312 163.355469 C 100.070312 162.75 100.566406 162.261719 101.179688 162.261719 C 101.789062 162.261719 102.289062 162.75 102.289062 163.355469 L 102.289062 172.886719 C 102.285156 172.972656 102.175781 175.269531 103.359375 176.5 C 103.859375 177.019531 104.539062 177.273438 105.429688 177.273438 L 106.808594 177.273438 C 107.699219 177.273438 108.378906 177.019531 108.882812 176.492188 C 110.054688 175.269531 109.953125 172.976562 109.953125 172.953125 L 109.949219 163.355469 C 109.949219 162.75 110.445312 162.261719 111.058594 162.261719 C 111.671875 162.261719 112.167969 162.75 112.167969 163.355469 L 112.167969 172.886719 C 112.171875 172.957031 112.335938 176.070312 110.496094 177.992188 C 109.566406 178.96875 108.324219 179.460938 106.808594 179.460938 Z M 106.808594 179.460938"/></g><path fill="#F2A22C" d="M 104.570312 170.363281 C 103.960938 170.363281 103.464844 169.875 103.464844 169.269531 L 103.464844 163.324219 C 103.464844 162.722656 103.960938 162.230469 104.570312 162.230469 C 105.183594 162.230469 105.679688 162.722656 105.679688 163.324219 L 105.679688 169.269531 C 105.679688 169.875 105.183594 170.363281 104.570312 170.363281 Z M 104.570312 170.363281"/><path fill="#F2A22C" d="M 107.667969 170.363281 C 107.054688 170.363281 106.558594 169.875 106.558594 169.269531 L 106.558594 163.324219 C 106.558594 162.722656 107.054688 162.230469 107.667969 162.230469 C 108.277344 162.230469 108.777344 162.722656 108.777344 163.324219 L 108.777344 169.269531 C 108.777344 169.875 108.277344 170.363281 107.667969 170.363281 Z M 107.667969 170.363281"/><g clip-path="url(#b)"><path fill="#F2A22C" d="M 106.4375 205.554688 L 105.796875 205.554688 C 104.367188 205.554688 103.207031 204.410156 103.207031 202.996094 L 103.207031 184.730469 C 103.207031 184.125 103.703125 183.636719 104.3125 183.636719 L 107.921875 183.636719 C 108.535156 183.636719 109.03125 184.125 109.03125 184.730469 L 109.03125 202.996094 C 109.03125 204.40625 107.867188 205.554688 106.4375 205.554688 Z M 105.421875 185.824219 L 105.421875 202.996094 C 105.421875 203.203125 105.589844 203.367188 105.800781 203.367188 L 106.4375 203.367188 C 106.644531 203.367188 106.8125 203.203125 106.8125 202.996094 L 106.8125 185.824219 Z M 105.421875 185.824219"/></g><path fill="#F2A22C" d="M 106.117188 185.824219 C 105.507812 185.824219 105.007812 185.335938 105.007812 184.730469 L 105.007812 178.367188 C 105.007812 177.765625 105.507812 177.273438 106.117188 177.273438 C 106.730469 177.273438 107.226562 177.765625 107.226562 178.367188 L 107.226562 184.730469 C 107.226562 185.335938 106.730469 185.824219 106.117188 185.824219 Z M 106.117188 185.824219"/><g clip-path="url(#c)"><path fill="#F2A22C" d="M 90.246094 205.554688 L 89.609375 205.554688 C 88.179688 205.554688 87.015625 204.410156 87.015625 202.996094 L 87.015625 184.730469 C 87.015625 184.125 87.511719 183.636719 88.125 183.636719 L 91.730469 183.636719 C 92.34375 183.636719 92.839844 184.125 92.839844 184.730469 L 92.839844 202.996094 C 92.839844 204.40625 91.675781 205.554688 90.246094 205.554688 Z M 89.230469 185.824219 L 89.230469 202.996094 C 89.230469 203.203125 89.402344 203.367188 89.609375 203.367188 L 90.246094 203.367188 C 90.453125 203.367188 90.621094 203.203125 90.621094 202.996094 L 90.621094 185.824219 Z M 89.230469 185.824219"/></g><path fill="#F2A22C" d="M 89.925781 185.824219 C 89.316406 185.824219 88.820312 185.335938 88.820312 184.730469 L 88.820312 178.367188 C 88.820312 177.765625 89.316406 177.273438 89.925781 177.273438 C 90.539062 177.273438 91.035156 177.765625 91.035156 178.367188 L 91.035156 184.730469 C 91.035156 185.335938 90.539062 185.824219 89.925781 185.824219 Z M 89.925781 185.824219"/><g clip-path="url(#d)"><path fill="#F2A22C" d="M 75.832031 205.554688 L 75.195312 205.554688 C 73.765625 205.554688 72.601562 204.410156 72.601562 202.996094 L 72.601562 184.730469 C 72.601562 184.125 73.097656 183.636719 73.710938 183.636719 L 77.320312 183.636719 C 77.929688 183.636719 78.425781 184.125 78.425781 184.730469 L 78.425781 202.996094 C 78.425781 204.40625 77.265625 205.554688 75.832031 205.554688 Z M 74.820312 185.824219 L 74.820312 202.996094 C 74.820312 203.203125 74.988281 203.367188 75.195312 203.367188 L 75.832031 203.367188 C 76.042969 203.367188 76.210938 203.203125 76.210938 202.996094 L 76.210938 185.824219 Z M 74.820312 185.824219"/></g><path fill="#F2A22C" d="M 76.714844 185.824219 C 76.105469 185.824219 75.605469 185.335938 75.605469 184.730469 L 75.605469 178.367188 C 75.605469 177.765625 76.105469 177.273438 76.714844 177.273438 C 77.328125 177.273438 77.824219 177.765625 77.824219 178.367188 L 77.824219 184.730469 C 77.824219 185.335938 77.328125 185.824219 76.714844 185.824219 Z M 76.714844 185.824219"/><path fill="#F2A22C" d="M 89.929688 179.460938 C 86.339844 179.460938 83.421875 175.597656 83.421875 170.851562 C 83.421875 166.109375 86.339844 162.246094 89.929688 162.246094 C 93.515625 162.246094 96.433594 166.109375 96.433594 170.851562 C 96.433594 175.597656 93.515625 179.460938 89.929688 179.460938 Z M 89.929688 164.433594 C 87.605469 164.433594 85.640625 167.375 85.640625 170.851562 C 85.640625 174.332031 87.605469 177.273438 89.929688 177.273438 C 92.253906 177.273438 94.21875 174.335938 94.21875 170.851562 C 94.21875 167.375 92.253906 164.433594 89.929688 164.433594 Z M 89.929688 164.433594"/><g clip-path="url(#e)"><path fill="#F2A22C" d="M 75.230469 181.734375 L 73.542969 181.734375 C 72.113281 181.734375 70.949219 180.589844 70.949219 179.179688 L 70.949219 164.550781 C 70.949219 164.277344 70.949219 163.449219 74.269531 157.71875 C 74.289062 157.683594 74.308594 157.648438 74.332031 157.617188 C 74.824219 156.945312 75.382812 156.804688 75.761719 156.804688 C 77.21875 156.804688 77.824219 158.707031 77.824219 159.722656 L 77.824219 179.179688 C 77.824219 180.589844 76.660156 181.734375 75.230469 181.734375 Z M 75.605469 159.828125 C 74.433594 161.910156 73.265625 164.144531 73.160156 164.652344 L 73.167969 179.179688 C 73.167969 179.382812 73.335938 179.550781 73.542969 179.550781 L 75.230469 179.550781 C 75.4375 179.550781 75.609375 179.382812 75.609375 179.179688 L 75.609375 159.828125 Z M 75.605469 159.828125"/></g><g clip-path="url(#f)"><path fill="#F2A22C" d="M 128.195312 188.695312 L 285.695312 188.695312 L 285.695312 205.945312 L 128.195312 205.945312 Z M 128.195312 188.695312"/></g><g fill="#FFF"><g><g><path d="M 3.4375 -1.796875 L 3.4375 0 L 2.03125 0 L 2.03125 -1.765625 L -0.046875 -5.59375 L 1.375 -5.59375 L 2.734375 -3.15625 L 4.046875 -5.59375 L 5.46875 -5.59375 Z M 3.4375 -1.796875" transform="translate(137.428 200.425)"/></g></g></g><g fill="#FFF"><g><g><path d="M 3.203125 -5.640625 C 4.078125 -5.640625 4.800781 -5.367188 5.375 -4.828125 C 5.945312 -4.285156 6.234375 -3.609375 6.234375 -2.796875 C 6.234375 -1.984375 5.941406 -1.300781 5.359375 -0.75 C 4.785156 -0.207031 4.066406 0.0625 3.203125 0.0625 C 2.347656 0.0625 1.628906 -0.207031 1.046875 -0.75 C 0.472656 -1.300781 0.1875 -1.984375 0.1875 -2.796875 C 0.1875 -3.617188 0.472656 -4.296875 1.046875 -4.828125 C 1.628906 -5.367188 2.347656 -5.640625 3.203125 -5.640625 Z M 3.21875 -4.453125 C 2.789062 -4.453125 2.421875 -4.289062 2.109375 -3.96875 C 1.796875 -3.65625 1.640625 -3.265625 1.640625 -2.796875 C 1.640625 -2.328125 1.796875 -1.929688 2.109375 -1.609375 C 2.421875 -1.285156 2.789062 -1.125 3.21875 -1.125 C 3.65625 -1.125 4.023438 -1.285156 4.328125 -1.609375 C 4.628906 -1.929688 4.78125 -2.328125 4.78125 -2.796875 C 4.78125 -3.265625 4.628906 -3.65625 4.328125 -3.96875 C 4.023438 -4.289062 3.65625 -4.453125 3.21875 -4.453125 Z M 3.21875 -4.453125" transform="translate(143.734 200.425)"/></g></g></g><g fill="#FFF"><g><g><path d="M 5.59375 -5.59375 L 5.59375 -2.34375 C 5.59375 -1.601562 5.363281 -1.015625 4.90625 -0.578125 C 4.445312 -0.148438 3.828125 0.0625 3.046875 0.0625 C 2.253906 0.0625 1.625 -0.148438 1.15625 -0.578125 C 0.695312 -1.015625 0.46875 -1.601562 0.46875 -2.34375 L 0.46875 -5.59375 L 1.890625 -5.59375 L 1.890625 -2.34375 C 1.890625 -1.96875 1.992188 -1.671875 2.203125 -1.453125 C 2.421875 -1.234375 2.703125 -1.125 3.046875 -1.125 C 3.390625 -1.125 3.660156 -1.234375 3.859375 -1.453125 C 4.066406 -1.671875 4.171875 -1.96875 4.171875 -2.34375 L 4.171875 -5.59375 Z M 5.59375 -5.59375" transform="translate(151.039 200.425)"/></g></g></g><g fill="#FFF"><g><g><path d="M 3.921875 0 L 3.09375 -1.578125 L 1.984375 -1.578125 L 1.984375 0 L 0.5625 0 L 0.5625 -5.59375 L 3.0625 -5.59375 C 3.800781 -5.59375 4.367188 -5.421875 4.765625 -5.078125 C 5.171875 -4.742188 5.375 -4.265625 5.375 -3.640625 C 5.375 -2.773438 5.039062 -2.175781 4.375 -1.84375 L 5.546875 0 Z M 1.984375 -2.6875 L 3.0625 -2.6875 C 3.363281 -2.6875 3.597656 -2.765625 3.765625 -2.921875 C 3.941406 -3.078125 4.03125 -3.300781 4.03125 -3.59375 C 4.03125 -3.882812 3.941406 -4.101562 3.765625 -4.25 C 3.597656 -4.394531 3.363281 -4.46875 3.0625 -4.46875 L 1.984375 -4.46875 Z M 1.984375 -2.6875" transform="translate(157.967 200.425)"/></g></g></g><g fill="#FFF"><g><g><path d="M 0.5625 -5.59375 L 3 -5.59375 C 3.707031 -5.59375 4.257812 -5.421875 4.65625 -5.078125 C 5.050781 -4.742188 5.25 -4.265625 5.25 -3.640625 C 5.25 -2.984375 5.050781 -2.472656 4.65625 -2.109375 C 4.257812 -1.753906 3.707031 -1.578125 3 -1.578125 L 1.984375 -1.578125 L 1.984375 0 L 0.5625 0 Z M 1.984375 -4.46875 L 1.984375 -2.6875 L 2.921875 -2.6875 C 3.234375 -2.6875 3.472656 -2.765625 3.640625 -2.921875 C 3.816406 -3.078125 3.90625 -3.300781 3.90625 -3.59375 C 3.90625 -3.882812 3.816406 -4.101562 3.640625 -4.25 C 3.472656 -4.394531 3.234375 -4.46875 2.921875 -4.46875 Z M 1.984375 -4.46875" transform="translate(167.355 200.425)"/></g></g></g><g fill="#FFF"><g><g><path d="M 1.984375 -1.1875 L 4.34375 -1.1875 L 4.34375 0 L 0.5625 0 L 0.5625 -5.59375 L 1.984375 -5.59375 Z M 1.984375 -1.1875" transform="translate(173.661 200.425)"/></g></g></g><g fill="#FFF"><g><g><path d="M 4.265625 -1.03125 L 1.828125 -1.03125 L 1.421875 0 L -0.046875 0 L 2.375 -5.59375 L 3.828125 -5.59375 L 6.1875 0 L 4.671875 0 Z M 3.859375 -2.109375 L 3.0625 -4.171875 L 2.25 -2.109375 Z M 3.859375 -2.109375" transform="translate(179.01 200.425)"/></g></g></g><g fill="#FFF"><g><g><path d="M 3.171875 -5.640625 C 3.585938 -5.640625 3.992188 -5.550781 4.390625 -5.375 C 4.796875 -5.207031 5.140625 -4.976562 5.421875 -4.6875 L 4.609375 -3.71875 C 4.421875 -3.945312 4.203125 -4.125 3.953125 -4.25 C 3.703125 -4.382812 3.453125 -4.453125 3.203125 -4.453125 C 2.753906 -4.453125 2.378906 -4.296875 2.078125 -3.984375 C 1.785156 -3.671875 1.640625 -3.285156 1.640625 -2.828125 C 1.640625 -2.359375 1.785156 -1.96875 2.078125 -1.65625 C 2.378906 -1.34375 2.753906 -1.1875 3.203125 -1.1875 C 3.429688 -1.1875 3.671875 -1.242188 3.921875 -1.359375 C 4.179688 -1.472656 4.410156 -1.632812 4.609375 -1.84375 L 5.4375 -0.953125 C 5.132812 -0.648438 4.773438 -0.40625 4.359375 -0.21875 C 3.953125 -0.03125 3.539062 0.0625 3.125 0.0625 C 2.289062 0.0625 1.59375 -0.207031 1.03125 -0.75 C 0.46875 -1.300781 0.1875 -1.988281 0.1875 -2.8125 C 0.1875 -3.613281 0.472656 -4.285156 1.046875 -4.828125 C 1.617188 -5.367188 2.328125 -5.640625 3.171875 -5.640625 Z M 3.171875 -5.640625" transform="translate(186.034 200.425)"/></g></g></g><g fill="#FFF"><g><g><path d="M 4.9375 -4.46875 L 1.984375 -4.46875 L 1.984375 -3.359375 L 4.640625 -3.359375 L 4.640625 -2.25 L 1.984375 -2.25 L 1.984375 -1.125 L 5.015625 -1.125 L 5.015625 0 L 0.5625 0 L 0.5625 -5.59375 L 4.9375 -5.59375 Z M 4.9375 -4.46875" transform="translate(192.436 200.425)"/></g></g></g><g fill="#FFF"><g><g><path d="M 4.828125 -4.453125 L 3.140625 -4.453125 L 3.140625 0 L 1.71875 0 L 1.71875 -4.453125 L 0.0625 -4.453125 L 0.0625 -5.59375 L 4.828125 -5.59375 Z M 4.828125 -4.453125" transform="translate(201.425 200.425)"/></g></g></g><g fill="#FFF"><g><g><path d="M 3.203125 -5.640625 C 4.078125 -5.640625 4.800781 -5.367188 5.375 -4.828125 C 5.945312 -4.285156 6.234375 -3.609375 6.234375 -2.796875 C 6.234375 -1.984375 5.941406 -1.300781 5.359375 -0.75 C 4.785156 -0.207031 4.066406 0.0625 3.203125 0.0625 C 2.347656 0.0625 1.628906 -0.207031 1.046875 -0.75 C 0.472656 -1.300781 0.1875 -1.984375 0.1875 -2.796875 C 0.1875 -3.617188 0.472656 -4.296875 1.046875 -4.828125 C 1.628906 -5.367188 2.347656 -5.640625 3.203125 -5.640625 Z M 3.21875 -4.453125 C 2.789062 -4.453125 2.421875 -4.289062 2.109375 -3.96875 C 1.796875 -3.65625 1.640625 -3.265625 1.640625 -2.796875 C 1.640625 -2.328125 1.796875 -1.929688 2.109375 -1.609375 C 2.421875 -1.285156 2.789062 -1.125 3.21875 -1.125 C 3.65625 -1.125 4.023438 -1.285156 4.328125 -1.609375 C 4.628906 -1.929688 4.78125 -2.328125 4.78125 -2.796875 C 4.78125 -3.265625 4.628906 -3.65625 4.328125 -3.96875 C 4.023438 -4.289062 3.65625 -4.453125 3.21875 -4.453125 Z M 3.21875 -4.453125" transform="translate(207.18 200.425)"/></g></g></g><g fill="#FFF"><g><g><path d="M 0.5625 -5.59375 L 3 -5.59375 C 3.707031 -5.59375 4.257812 -5.421875 4.65625 -5.078125 C 5.050781 -4.742188 5.25 -4.265625 5.25 -3.640625 C 5.25 -2.984375 5.050781 -2.472656 4.65625 -2.109375 C 4.257812 -1.753906 3.707031 -1.578125 3 -1.578125 L 1.984375 -1.578125 L 1.984375 0 L 0.5625 0 Z M 1.984375 -4.46875 L 1.984375 -2.6875 L 2.921875 -2.6875 C 3.234375 -2.6875 3.472656 -2.765625 3.640625 -2.921875 C 3.816406 -3.078125 3.90625 -3.300781 3.90625 -3.59375 C 3.90625 -3.882812 3.816406 -4.101562 3.640625 -4.25 C 3.472656 -4.394531 3.234375 -4.46875 2.921875 -4.46875 Z M 1.984375 -4.46875" transform="translate(217.214 200.425)"/></g></g></g><g fill="#FFF"><g><g><path d="M 1.984375 -1.1875 L 4.34375 -1.1875 L 4.34375 0 L 0.5625 0 L 0.5625 -5.59375 L 1.984375 -5.59375 Z M 1.984375 -1.1875" transform="translate(223.52 200.425)"/></g></g></g><g fill="#FFF"><g><g><path d="M 4.265625 -1.03125 L 1.828125 -1.03125 L 1.421875 0 L -0.046875 0 L 2.375 -5.59375 L 3.828125 -5.59375 L 6.1875 0 L 4.671875 0 Z M 3.859375 -2.109375 L 3.0625 -4.171875 L 2.25 -2.109375 Z M 3.859375 -2.109375" transform="translate(228.869 200.425)"/></g></g></g><g fill="#FFF"><g><g><path d="M 5.71875 0 L 4.46875 0 L 1.890625 -3.4375 L 1.890625 0 L 0.5625 0 L 0.5625 -5.59375 L 1.8125 -5.59375 L 4.390625 -2.140625 L 4.390625 -5.59375 L 5.71875 -5.59375 Z M 5.71875 0" transform="translate(235.894 200.425)"/></g></g></g><g fill="#FFF"><g><g><path d="M 6.703125 0 L 5.453125 0 L 5.4375 -3.640625 L 4.09375 -0.5625 L 3.171875 -0.5625 L 1.828125 -3.640625 L 1.828125 0 L 0.5625 0 L 0.5625 -5.59375 L 2.109375 -5.59375 L 3.640625 -2.265625 L 5.15625 -5.59375 L 6.703125 -5.59375 Z M 6.703125 0" transform="translate(245.776 200.425)"/></g></g></g><g fill="#FFF"><g><g><path d="M 4.9375 -4.46875 L 1.984375 -4.46875 L 1.984375 -3.359375 L 4.640625 -3.359375 L 4.640625 -2.25 L 1.984375 -2.25 L 1.984375 -1.125 L 5.015625 -1.125 L 5.015625 0 L 0.5625 0 L 0.5625 -5.59375 L 4.9375 -5.59375 Z M 4.9375 -4.46875" transform="translate(253.918 200.425)"/></g></g></g><g fill="#FFF"><g><g><path d="M 4.265625 -1.03125 L 1.828125 -1.03125 L 1.421875 0 L -0.046875 0 L 2.375 -5.59375 L 3.828125 -5.59375 L 6.1875 0 L 4.671875 0 Z M 3.859375 -2.109375 L 3.0625 -4.171875 L 2.25 -2.109375 Z M 3.859375 -2.109375" transform="translate(260.177 200.425)"/></g></g></g><g fill="#FFF"><g><g><path d="M 1.984375 -1.1875 L 4.34375 -1.1875 L 4.34375 0 L 0.5625 0 L 0.5625 -5.59375 L 1.984375 -5.59375 Z M 1.984375 -1.1875" transform="translate(267.201 200.425)"/></g></g></g><g fill="#FFF"><g><g><path d="M 2.703125 -5.65625 C 3.535156 -5.65625 4.269531 -5.445312 4.90625 -5.03125 L 4.375 -3.921875 C 4.082031 -4.085938 3.769531 -4.222656 3.4375 -4.328125 C 3.101562 -4.441406 2.820312 -4.5 2.59375 -4.5 C 2.175781 -4.5 1.96875 -4.363281 1.96875 -4.09375 C 1.96875 -3.914062 2.066406 -3.773438 2.265625 -3.671875 C 2.472656 -3.566406 2.722656 -3.472656 3.015625 -3.390625 C 3.304688 -3.316406 3.59375 -3.222656 3.875 -3.109375 C 4.164062 -3.003906 4.410156 -2.828125 4.609375 -2.578125 C 4.816406 -2.335938 4.921875 -2.03125 4.921875 -1.65625 C 4.921875 -1.125 4.710938 -0.707031 4.296875 -0.40625 C 3.878906 -0.101562 3.34375 0.046875 2.6875 0.046875 C 2.226562 0.046875 1.769531 -0.03125 1.3125 -0.1875 C 0.863281 -0.351562 0.472656 -0.570312 0.140625 -0.84375 L 0.6875 -1.9375 C 0.96875 -1.695312 1.300781 -1.5 1.6875 -1.34375 C 2.070312 -1.1875 2.410156 -1.109375 2.703125 -1.109375 C 2.929688 -1.109375 3.109375 -1.144531 3.234375 -1.21875 C 3.367188 -1.300781 3.4375 -1.425781 3.4375 -1.59375 C 3.4375 -1.75 3.363281 -1.875 3.21875 -1.96875 C 3.070312 -2.070312 2.890625 -2.148438 2.671875 -2.203125 C 2.453125 -2.253906 2.210938 -2.320312 1.953125 -2.40625 C 1.703125 -2.488281 1.46875 -2.582031 1.25 -2.6875 C 1.03125 -2.789062 0.847656 -2.953125 0.703125 -3.171875 C 0.554688 -3.390625 0.484375 -3.65625 0.484375 -3.96875 C 0.484375 -4.476562 0.6875 -4.882812 1.09375 -5.1875 C 1.5 -5.5 2.035156 -5.65625 2.703125 -5.65625 Z M 2.703125 -5.65625" transform="translate(272.55 200.425)"/></g></g></g></svg>